<svg width="80" height="80" viewBox="0 0 80 80" fill="none" xmlns="http://www.w3.org/2000/svg">
<path d="M40 0C62.0914 0 80 17.9086 80 40C80 62.0914 62.0914 80 40 80C17.9086 80 0 62.0914 0 40C0 17.9086 17.9086 0 40 0Z" fill="#4CAF50"/>
<path d="M40 0C62.0914 0 80 17.9086 80 40C80 62.0914 62.0914 80 40 80C17.9086 80 0 62.0914 0 40C0 17.9086 17.9086 0 40 0Z" stroke="#E5E7EB"/>
<path d="M52 56H28V24H52V56Z" stroke="#E5E7EB"/>
<path d="M52 51H28V27H52V51Z" stroke="#E5E7EB"/>
<path d="M40.75 31.5C37.0656 31.5 33.9484 33.9141 32.8891 37.2422C34.4641 36.4453 36.2406 36 38.125 36H42.25C42.6625 36 43 36.3375 43 36.75C43 37.1625 42.6625 37.5 42.25 37.5H41.5H38.125C37.3469 37.5 36.5922 37.5891 35.8656 37.7531C34.6516 38.0297 33.5219 38.5219 32.5188 39.1922C29.7953 41.0062 28 44.1047 28 47.625V48.375C28 48.9984 28.5016 49.5 29.125 49.5C29.7484 49.5 30.25 48.9984 30.25 48.375V47.625C30.25 45.3422 31.2203 43.2891 32.7719 41.85C33.7 45.3891 36.9203 48 40.75 48H40.7969C46.9891 47.9672 52 41.8641 52 34.3406C52 32.3437 51.6484 30.4453 51.0109 28.7344C50.8891 28.4109 50.4156 28.425 50.2516 28.7297C49.3703 30.3797 47.6266 31.5 45.625 31.5H40.75Z" fill="white"/>
</svg>
