<svg width="48" height="48" viewBox="0 0 48 48" fill="none" xmlns="http://www.w3.org/2000/svg">
<path d="M40 0C44.4183 0 48 3.58172 48 8V40C48 44.4183 44.4183 48 40 48H8C3.58172 48 0 44.4183 0 40V8C5.15405e-07 3.58172 3.58172 0 8 0H40Z" fill="#27AE60"/>
<path d="M40 0C44.4183 0 48 3.58172 48 8V40C48 44.4183 44.4183 48 40 48H8C3.58172 48 0 44.4183 0 40V8C5.15405e-07 3.58172 3.58172 0 8 0H40Z" stroke="#E5E7EB"/>
<path d="M33 38H15V10H33V38Z" stroke="#E5E7EB"/>
<g clip-path="url(#clip0_2_126)">
<path d="M20.6531 17.6426C21.1453 18.2402 21.743 18.7289 22.3934 19.1262C23.3039 19.6816 24.2813 20.0367 25.125 20.2371V19.1297C24.3445 18.0645 23.7891 16.7637 23.7399 15.2344C23.7258 14.8371 23.4762 14.4785 23.093 14.3766C22.8258 14.3063 22.5375 14.3695 22.3547 14.5805C21.8871 15.1219 21.2051 16.1484 20.6531 17.6461V17.6426ZM26.25 19.3125V20.3883V20.434V21.5625C24.1125 21.3832 19.7461 20.0227 18.5402 16.0359C18.4242 15.6563 18.0902 15.375 17.693 15.375C17.4152 15.375 17.1551 15.5121 17.032 15.7617C16.6453 16.5668 16.125 18.191 16.125 20.4375C16.125 24.5473 18.941 26.7832 20.2875 27.5672L15.4149 28.8961C15.2356 28.9453 15.0914 29.0789 15.0317 29.2547C14.9719 29.4305 15.0035 29.6273 15.1125 29.775C15.7629 30.6398 17.7176 32.25 20.625 32.25C20.7516 32.25 20.8781 32.2078 20.9766 32.127L23.6344 30H26.25C29.3578 30 31.875 27.4828 31.875 24.375V18.75L32.9262 17.1715C32.9719 17.1012 33 17.0168 33 16.9324C33 16.6934 32.8067 16.5 32.5676 16.5H29.0625C27.5086 16.5 26.25 17.7586 26.25 19.3125ZM29.0625 18.75C29.2117 18.75 29.3548 18.8093 29.4603 18.9148C29.5657 19.0202 29.625 19.1633 29.625 19.3125C29.625 19.4617 29.5657 19.6048 29.4603 19.7102C29.3548 19.8157 29.2117 19.875 29.0625 19.875C28.9133 19.875 28.7703 19.8157 28.6648 19.7102C28.5593 19.6048 28.5 19.4617 28.5 19.3125C28.5 19.1633 28.5593 19.0202 28.6648 18.9148C28.7703 18.8093 28.9133 18.75 29.0625 18.75Z" fill="white"/>
</g>
<defs>
<clipPath id="clip0_2_126">
<path d="M15 14.25H33V32.25H15V14.25Z" fill="white"/>
</clipPath>
</defs>
</svg>
