<svg width="48" height="48" viewBox="0 0 48 48" fill="none" xmlns="http://www.w3.org/2000/svg">
<path d="M40 0C44.4183 0 48 3.58172 48 8V40C48 44.4183 44.4183 48 40 48H8C3.58172 48 0 44.4183 0 40V8C5.15405e-07 3.58172 3.58172 0 8 0H40Z" fill="#4CAF50"/>
<path d="M40 0C44.4183 0 48 3.58172 48 8V40C48 44.4183 44.4183 48 40 48H8C3.58172 48 0 44.4183 0 40V8C5.15405e-07 3.58172 3.58172 0 8 0H40Z" stroke="#E5E7EB"/>
<path d="M33 38H15V10H33V38Z" stroke="#E5E7EB"/>
<path d="M33 32.25H15V14.25H33V32.25Z" stroke="#E5E7EB"/>
<path d="M16.6734 24.8109L23.0262 30.7418C23.2898 30.9879 23.6379 31.125 24 31.125C24.3621 31.125 24.7102 30.9879 24.9738 30.7418L31.3266 24.8109C32.3953 23.816 33 22.4203 33 20.9613V20.7574C33 18.3 31.2246 16.2047 28.8023 15.8004C27.1992 15.5332 25.568 16.057 24.4219 17.2031L24 17.625L23.5781 17.2031C22.432 16.057 20.8008 15.5332 19.1977 15.8004C16.7754 16.2047 15 18.3 15 20.7574V20.9613C15 22.4203 15.6047 23.816 16.6734 24.8109Z" fill="white"/>
</svg>
