<svg width="48" height="48" viewBox="0 0 48 48" fill="none" xmlns="http://www.w3.org/2000/svg">
<path d="M40 0C44.4183 0 48 3.58172 48 8V40C48 44.4183 44.4183 48 40 48H8C3.58172 48 0 44.4183 0 40V8C5.15405e-07 3.58172 3.58172 0 8 0H40Z" fill="#F39C12"/>
<path d="M40 0C44.4183 0 48 3.58172 48 8V40C48 44.4183 44.4183 48 40 48H8C3.58172 48 0 44.4183 0 40V8C5.15405e-07 3.58172 3.58172 0 8 0H40Z" stroke="#E5E7EB"/>
<path d="M33 38H15V10H33V38Z" stroke="#E5E7EB"/>
<g clip-path="url(#clip0_2_132)">
<path d="M33 15.375C33 19.3688 30.0258 22.6699 26.1727 23.1797C25.923 21.3023 25.0969 19.6078 23.877 18.2824C25.2234 15.8777 27.7969 14.25 30.75 14.25H31.875C32.4973 14.25 33 14.7527 33 15.375ZM15 17.625C15 17.0027 15.5027 16.5 16.125 16.5H17.25C21.5988 16.5 25.125 20.0262 25.125 24.375V25.5V31.125C25.125 31.7473 24.6223 32.25 24 32.25C23.3777 32.25 22.875 31.7473 22.875 31.125V25.5C18.5262 25.5 15 21.9738 15 17.625Z" fill="white"/>
</g>
<defs>
<clipPath id="clip0_2_132">
<path d="M15 14.25H33V32.25H15V14.25Z" fill="white"/>
</clipPath>
</defs>
</svg>
