<svg width="48" height="48" viewBox="0 0 48 48" fill="none" xmlns="http://www.w3.org/2000/svg">
<path d="M40 0C44.4183 0 48 3.58172 48 8V40C48 44.4183 44.4183 48 40 48H8C3.58172 48 0 44.4183 0 40V8C5.15405e-07 3.58172 3.58172 0 8 0H40Z" fill="#5DADE2"/>
<path d="M40 0C44.4183 0 48 3.58172 48 8V40C48 44.4183 44.4183 48 40 48H8C3.58172 48 0 44.4183 0 40V8C5.15405e-07 3.58172 3.58172 0 8 0H40Z" stroke="#E5E7EB"/>
<path d="M34.125 38H13.875V10H34.125V38Z" stroke="#E5E7EB"/>
<g clip-path="url(#clip0_2_123)">
<path d="M19.0781 16.943C19.0781 15.4559 20.284 14.25 21.7711 14.25C22.4848 14.25 23.1703 14.5348 23.673 15.0375L24 15.3645L24.327 15.0375C24.8297 14.5348 25.5152 14.25 26.2289 14.25C27.716 14.25 28.9219 15.4559 28.9219 16.943C28.9219 17.6566 28.6371 18.3422 28.1344 18.8449L24.4957 22.4801C24.2215 22.7543 23.775 22.7543 23.5008 22.4801L19.8656 18.8449C19.3629 18.3422 19.0781 17.6566 19.0781 16.943ZM33.8508 26.073C34.3113 26.6988 34.1777 27.5777 33.552 28.0383L29.1012 31.3184C28.2785 31.923 27.2871 32.25 26.2641 32.25H20.625H15C14.3777 32.25 13.875 31.7473 13.875 31.125V28.875C13.875 28.2527 14.3777 27.75 15 27.75H16.2938L17.8723 26.4844C18.6703 25.8445 19.6617 25.5 20.6848 25.5H23.4375H24H26.25C26.8723 25.5 27.375 26.0027 27.375 26.625C27.375 27.2473 26.8723 27.75 26.25 27.75H24H23.4375C23.1281 27.75 22.875 28.0031 22.875 28.3125C22.875 28.6219 23.1281 28.875 23.4375 28.875H27.6773L31.8855 25.7742C32.5113 25.3137 33.3902 25.4473 33.8508 26.073ZM20.6813 27.75H20.6496C20.6602 27.75 20.6707 27.75 20.6813 27.75Z" fill="white"/>
</g>
<defs>
<clipPath id="clip0_2_123">
<path d="M13.875 14.25H34.125V32.25H13.875V14.25Z" fill="white"/>
</clipPath>
</defs>
</svg>
