<svg width="48" height="48" viewBox="0 0 48 48" fill="none" xmlns="http://www.w3.org/2000/svg">
<path d="M40 0C44.4183 0 48 3.58172 48 8V40C48 44.4183 44.4183 48 40 48H8C3.58172 48 0 44.4183 0 40V8C5.15405e-07 3.58172 3.58172 0 8 0H40Z" fill="#3498DB"/>
<path d="M40 0C44.4183 0 48 3.58172 48 8V40C48 44.4183 44.4183 48 40 48H8C3.58172 48 0 44.4183 0 40V8C5.15405e-07 3.58172 3.58172 0 8 0H40Z" stroke="#E5E7EB"/>
<path d="M35.25 38H12.75V10H35.25V38Z" stroke="#E5E7EB"/>
<g clip-path="url(#clip0_2_129)">
<path d="M15.5625 17.9062C15.5625 17.1293 14.9332 16.5 14.1562 16.5C13.3793 16.5 12.75 17.1293 12.75 17.9062V19.875V22.125V25.6934C12.75 26.5898 13.1051 27.4477 13.7379 28.0805L17.25 31.5926C17.6719 32.0145 18.2449 32.25 18.8426 32.25H21.1875C22.1191 32.25 22.875 31.4941 22.875 30.5625V27.7887C22.875 26.7445 22.4602 25.7426 21.7219 25.0043L20.8324 24.1148L20.298 23.5805L19.173 22.4555C18.7336 22.016 18.0199 22.016 17.5805 22.4555C17.141 22.8949 17.141 23.6086 17.5805 24.048L18.7055 25.173L19.2398 25.7074C19.6266 26.0941 19.5633 26.734 19.1098 27.0363C18.7687 27.2648 18.3117 27.2191 18.0199 26.9273L16.2199 25.1309C15.798 24.709 15.5625 24.1359 15.5625 23.5383V22.125V19.3125V17.9062ZM32.4375 17.9062V19.3125V22.125V23.5383C32.4375 24.1359 32.202 24.709 31.7801 25.1309L29.9836 26.9273C29.6918 27.2191 29.2348 27.2648 28.8938 27.0363C28.4402 26.734 28.377 26.0906 28.7637 25.7074L29.298 25.173L30.423 24.048C30.8625 23.6086 30.8625 22.8949 30.423 22.4555C29.9836 22.016 29.2699 22.016 28.8305 22.4555L27.7055 23.5805L27.1711 24.1148L26.2816 25.0043C25.5434 25.7426 25.1285 26.7445 25.1285 27.7887V30.5625C25.1285 31.4941 25.8844 32.25 26.816 32.25H29.1609C29.7586 32.25 30.3316 32.0145 30.7535 31.5926L34.2656 28.0805C34.8984 27.4477 35.2535 26.5898 35.2535 25.6934V22.125V19.875V17.9062C35.2535 17.1293 34.6242 16.5 33.8473 16.5C33.0703 16.5 32.441 17.1293 32.441 17.9062H32.4375Z" fill="white"/>
</g>
<defs>
<clipPath id="clip0_2_129">
<path d="M12.75 14.25H35.25V32.25H12.75V14.25Z" fill="white"/>
</clipPath>
</defs>
</svg>
