<svg width="48" height="48" viewBox="0 0 48 48" fill="none" xmlns="http://www.w3.org/2000/svg">
<path d="M40 0C44.4183 0 48 3.58172 48 8V40C48 44.4183 44.4183 48 40 48H8C3.58172 48 0 44.4183 0 40V8C5.15405e-07 3.58172 3.58172 0 8 0H40Z" fill="#E74C3C"/>
<path d="M40 0C44.4183 0 48 3.58172 48 8V40C48 44.4183 44.4183 48 40 48H8C3.58172 48 0 44.4183 0 40V8C5.15405e-07 3.58172 3.58172 0 8 0H40Z" stroke="#E5E7EB"/>
<path d="M33 38H15V10H33V38Z" stroke="#E5E7EB"/>
<path d="M33 32.25H15V14.25H33V32.25Z" stroke="#E5E7EB"/>
<path d="M24.5625 17.625C21.7992 17.625 19.4613 19.4356 18.6668 21.9317C19.848 21.334 21.1805 21 22.5938 21H25.6875C25.9969 21 26.25 21.2531 26.25 21.5625C26.25 21.8719 25.9969 22.125 25.6875 22.125H25.125H22.5938C22.0102 22.125 21.4441 22.1918 20.8992 22.3149C19.9887 22.5223 19.1414 22.8914 18.3891 23.3942C16.3465 24.7547 15 27.0785 15 29.7188V30.2813C15 30.7489 15.3762 31.125 15.8438 31.125C16.3113 31.125 16.6875 30.7489 16.6875 30.2813V29.7188C16.6875 28.0067 17.4152 26.4668 18.5789 25.3875C19.275 28.0418 21.6902 30 24.5625 30H24.5977C29.2418 29.9754 33 25.3981 33 19.7555C33 18.2578 32.7363 16.834 32.2582 15.5508C32.1668 15.3082 31.8117 15.3188 31.6887 15.5473C31.0277 16.7848 29.7199 17.625 28.2188 17.625H24.5625Z" fill="white"/>
</svg>
