<svg width="19" height="22" viewBox="0 0 19 22" fill="none" xmlns="http://www.w3.org/2000/svg">
<path d="M18.2656 22H0.265625V0H18.2656V22Z" stroke="#E5E7EB"/>
<g clip-path="url(#clip0_2_1310)">
<path d="M12.2656 16.8781L6.26562 15.1625V3.12188L12.2656 4.8375V16.8781ZM13.2656 16.8406V4.7625L17.2375 3.17188C17.7312 2.975 18.2656 3.3375 18.2656 3.86875V14.3313C18.2656 14.6375 18.0781 14.9125 17.7938 15.0281L13.2656 16.8375V16.8406ZM0.7375 4.97188L5.26562 3.1625V15.2375L1.29375 16.8281C0.8 17.025 0.265625 16.6625 0.265625 16.1313V5.66875C0.265625 5.3625 0.453125 5.0875 0.7375 4.97188Z" fill="#4CAF50"/>
</g>
<defs>
<clipPath id="clip0_2_1310">
<path d="M0.265625 2H18.2656V18H0.265625V2Z" fill="white"/>
</clipPath>
</defs>
</svg>
